<svg xmlns="http://www.w3.org/2000/svg" xmlns:xlink="http://www.w3.org/1999/xlink" viewBox="0 0 337.48 335.98"><defs><style>.cls-1{fill:none;}.cls-2{isolation:isolate;}.cls-3{fill:url(#radial-gradient);}.cls-4{clip-path:url(#clip-path);}.cls-5{mix-blend-mode:multiply;}.cls-6{fill:url(#linear-gradient);}.cls-7{fill:url(#linear-gradient-2);}.cls-8{fill:url(#linear-gradient-3);}.cls-9{fill:url(#linear-gradient-4);}.cls-10{fill:url(#linear-gradient-5);}.cls-11{fill:url(#linear-gradient-6);}.cls-12{fill:url(#linear-gradient-7);}.cls-13{fill:url(#linear-gradient-8);}.cls-14{fill:url(#linear-gradient-9);}.cls-15{fill:url(#linear-gradient-10);}.cls-16{fill:url(#linear-gradient-11);}.cls-17{fill:url(#linear-gradient-12);}.cls-18{fill:url(#linear-gradient-13);}.cls-19{fill:url(#linear-gradient-14);}.cls-20{fill:url(#linear-gradient-15);}.cls-21{fill:url(#linear-gradient-16);}.cls-22{fill:url(#linear-gradient-17);}.cls-23{fill:url(#linear-gradient-18);}.cls-24{fill:url(#linear-gradient-19);}.cls-25{fill:url(#linear-gradient-20);}.cls-26{fill:url(#linear-gradient-21);}.cls-27{fill:url(#linear-gradient-22);}.cls-28{fill:url(#linear-gradient-23);}.cls-29{fill:url(#linear-gradient-24);}.cls-30{fill:url(#linear-gradient-25);}.cls-31{fill:url(#linear-gradient-26);}.cls-32{fill:url(#linear-gradient-27);}.cls-33{fill:url(#linear-gradient-28);}.cls-34{fill:url(#linear-gradient-29);}.cls-35{fill:url(#linear-gradient-30);}.cls-36{fill:url(#linear-gradient-31);}.cls-37{fill:url(#linear-gradient-32);}.cls-38{fill:url(#linear-gradient-33);}.cls-39{fill:url(#linear-gradient-34);}.cls-40{fill:url(#linear-gradient-35);}.cls-41{fill:url(#linear-gradient-36);}.cls-42{fill:url(#linear-gradient-37);}.cls-43{fill:url(#linear-gradient-38);}.cls-44{fill:url(#linear-gradient-39);}.cls-45{fill:url(#linear-gradient-40);}.cls-46{fill:url(#linear-gradient-41);}.cls-47{fill:url(#linear-gradient-42);}.cls-48{fill:url(#linear-gradient-43);}.cls-49{fill:url(#linear-gradient-44);}.cls-50{fill:url(#linear-gradient-45);}.cls-51{fill:url(#linear-gradient-46);}.cls-52{fill:url(#linear-gradient-47);}.cls-53{fill:url(#linear-gradient-48);}.cls-54{fill:url(#linear-gradient-49);}.cls-55{fill:url(#linear-gradient-50);}.cls-56{fill:url(#linear-gradient-51);}.cls-57{fill:url(#linear-gradient-52);}.cls-58{fill:url(#linear-gradient-53);}.cls-59{fill:url(#linear-gradient-54);}.cls-60{fill:url(#linear-gradient-55);}.cls-61,.cls-63{mix-blend-mode:screen;}.cls-61{fill:url(#radial-gradient-2);}.cls-62,.cls-64{mix-blend-mode:color-dodge;}.cls-62{fill:url(#radial-gradient-3);}.cls-63{fill:url(#radial-gradient-4);}.cls-64{fill:url(#radial-gradient-5);}</style><radialGradient id="radial-gradient" cx="172.71" cy="312.06" r="236.25" gradientUnits="userSpaceOnUse"><stop offset="0" stop-color="#dfdfdf"/><stop offset="0.03" stop-color="#e0e0e0"/><stop offset="0.62" stop-color="#f7f7f7"/><stop offset="1" stop-color="#fff"/></radialGradient><clipPath id="clip-path" transform="translate(14 24.85)"><rect class="cls-1" width="288" height="288"/></clipPath><linearGradient id="linear-gradient" x1="-1301.31" y1="1565.83" x2="-1299.7" y2="1564.23" gradientTransform="matrix(39.21, -19.97, -11.35, -22.28, 68893.38, 9134.78)" gradientUnits="userSpaceOnUse"><stop offset="0" stop-color="#b2b2b2"/><stop offset="1" stop-color="#b2b2b2"/></linearGradient><linearGradient id="linear-gradient-2" x1="-1298.33" y1="1535.78" x2="-1296.72" y2="1534.18" gradientTransform="matrix(63.27, -32.22, -4.54, -8.91, 89308.21, -27920.38)" gradientUnits="userSpaceOnUse"><stop offset="0" stop-color="#bcbcbc"/><stop offset="1" stop-color="#b6b6b6"/></linearGradient><linearGradient id="linear-gradient-3" x1="-1302.64" y1="1573.2" x2="-1301.03" y2="1571.59" gradientTransform="matrix(25.84, -13.16, -19.06, -37.43, 63882.55, 41911.41)" gradientUnits="userSpaceOnUse"><stop offset="0" stop-color="#b2b2b2"/><stop offset="1" stop-color="#afafaf"/></linearGradient><linearGradient id="linear-gradient-4" x1="-1299.89" y1="1575.65" x2="-1298.28" y2="1574.05" gradientTransform="matrix(47.23, -24.05, -30.86, -60.59, 110282.06, 64452.94)" gradientUnits="userSpaceOnUse"><stop offset="0" stop-color="#dadada"/><stop offset="1" stop-color="#d4d4d4"/></linearGradient><linearGradient id="linear-gradient-5" x1="-1303.86" y1="1572.52" x2="-1302.26" y2="1570.91" gradientTransform="matrix(25.84, -13.16, -21.78, -42.77, 68182.95, 50339.87)" gradientUnits="userSpaceOnUse"><stop offset="0" stop-color="#c6c6c6"/><stop offset="1" stop-color="#ebebeb"/></linearGradient><linearGradient id="linear-gradient-6" x1="-1299.49" y1="1568.88" x2="-1297.89" y2="1567.28" gradientTransform="matrix(55.25, -28.14, -19.06, -37.43, 101958.59, 22445.01)" gradientUnits="userSpaceOnUse"><stop offset="0" stop-color="#cecece"/><stop offset="1" stop-color="#ccc"/></linearGradient><linearGradient id="linear-gradient-7" x1="-1299.5" y1="1567.13" x2="-1298.31" y2="1565.94" gradientTransform="matrix(55.25, -28.14, -17.7, -34.75, 99791.15, 18190.17)" gradientUnits="userSpaceOnUse"><stop offset="0" stop-color="#e5e5e5"/><stop offset="1" stop-color="#f2f2f2"/></linearGradient><linearGradient id="linear-gradient-8" x1="-1355.5" y1="1559.57" x2="-1353.89" y2="1557.96" gradientTransform="matrix(4.46, -2.27, -8.62, -16.93, 19570.5, 23587.61)" gradientUnits="userSpaceOnUse"><stop offset="0" stop-color="#ebebeb"/><stop offset="1" stop-color="#d8d8d8"/></linearGradient><linearGradient id="linear-gradient-9" x1="-1301.27" y1="1560.3" x2="-1299.67" y2="1558.7" gradientTransform="matrix(43.66, -22.24, -9.08, -17.82, 71063.22, -858.76)" gradientUnits="userSpaceOnUse"><stop offset="0" stop-color="#c4c4c4"/><stop offset="1" stop-color="#dadada"/></linearGradient><linearGradient id="linear-gradient-10" x1="-1297.21" y1="1502.32" x2="-1295.6" y2="1500.72" gradientTransform="matrix(106.93, -54.46, -2.72, -5.35, 142934.28, -62341.22)" gradientUnits="userSpaceOnUse"><stop offset="0" stop-color="silver"/><stop offset="1" stop-color="#d0d0d0"/></linearGradient><linearGradient id="linear-gradient-11" x1="-1302.67" y1="1525.04" x2="-1301.06" y2="1523.44" gradientTransform="matrix(37.43, -19.06, -3.63, -7.13, 54321.61, -13677.26)" gradientUnits="userSpaceOnUse"><stop offset="0" stop-color="#eee"/><stop offset="1" stop-color="#ddd"/></linearGradient><linearGradient id="linear-gradient-12" x1="-1313" y1="1572.98" x2="-1311.4" y2="1571.37" gradientTransform="matrix(16.93, -8.62, -17.25, -33.86, 49324.46, 42186.24)" gradientUnits="userSpaceOnUse"><stop offset="0" stop-color="#e8e8e8"/><stop offset="1" stop-color="#d7d7d7"/></linearGradient><linearGradient id="linear-gradient-13" x1="-1306.92" y1="1544.85" x2="-1305.31" y2="1543.25" gradientTransform="matrix(24.06, -12.25, -5.45, -10.69, 39902.64, 789.92)" gradientUnits="userSpaceOnUse"><stop offset="0" stop-color="#f3f3f3"/><stop offset="1" stop-color="#f2f2f2"/></linearGradient><linearGradient id="linear-gradient-14" x1="-1303.94" y1="1552.84" x2="-1302.33" y2="1551.24" gradientTransform="matrix(33.86, -17.25, -6.81, -13.37, 54740.06, -1439.86)" gradientUnits="userSpaceOnUse"><stop offset="0" stop-color="#f6f6f6"/><stop offset="1" stop-color="#f2f2f2"/></linearGradient><linearGradient id="linear-gradient-15" x1="-1308.13" y1="1553.37" x2="-1306.52" y2="1551.77" gradientTransform="matrix(24.06, -12.25, -6.81, -13.37, 42032.48, 5032.06)" gradientUnits="userSpaceOnUse"><stop offset="0" stop-color="#f6f6f6"/><stop offset="1" stop-color="#f7f7f7"/></linearGradient><linearGradient id="linear-gradient-16" x1="-1299.73" y1="1573.49" x2="-1298.12" y2="1571.88" gradientTransform="matrix(38.32, -19.51, -19.06, -37.43, 80045.83, 33679.66)" gradientUnits="userSpaceOnUse"><stop offset="0" stop-color="#aaa"/><stop offset="1" stop-color="#c1c1c1"/></linearGradient><linearGradient id="linear-gradient-17" x1="-1300.63" y1="1565.69" x2="-1299.02" y2="1564.09" gradientTransform="matrix(38.32, -19.51, -13.16, -25.84, 70683.3, 15296.86)" gradientUnits="userSpaceOnUse"><stop offset="0" stop-color="#a8a8a8"/><stop offset="1" stop-color="#d3d3d3"/></linearGradient><linearGradient id="linear-gradient-18" x1="-1299.12" y1="1565.87" x2="-1297.52" y2="1564.27" gradientTransform="matrix(46.34, -23.6, -13.16, -25.84, 81094.43, 9994.94)" gradientUnits="userSpaceOnUse"><stop offset="0" stop-color="#e0e0e0"/><stop offset="1" stop-color="#cecece"/></linearGradient><linearGradient id="linear-gradient-19" x1="-1304.8" y1="1574.88" x2="-1303.2" y2="1573.27" gradientTransform="matrix(23.17, -11.8, -21.33, -41.88, 63967.76, 50750.8)" gradientUnits="userSpaceOnUse"><stop offset="0" stop-color="#b2b2b2"/><stop offset="1" stop-color="#d0d0d0"/></linearGradient><linearGradient id="linear-gradient-20" x1="-1298.66" y1="1572.57" x2="-1297.42" y2="1571.34" gradientTransform="matrix(62.38, -31.77, -20.42, -40.1, 113290.49, 22023.33)" gradientUnits="userSpaceOnUse"><stop offset="0" stop-color="#f6f6f6"/><stop offset="1" stop-color="#e7e7e7"/></linearGradient><linearGradient id="linear-gradient-21" x1="-1301.17" y1="1574.45" x2="-1299.57" y2="1572.84" gradientTransform="matrix(37.43, -19.06, -21.33, -41.88, 82439.15, 41344.31)" gradientUnits="userSpaceOnUse"><stop offset="0" stop-color="#c3c3c3"/><stop offset="1" stop-color="#cbcbcb"/></linearGradient><linearGradient id="linear-gradient-22" x1="-1302.03" y1="1573.49" x2="-1300.42" y2="1571.88" gradientTransform="matrix(29.41, -14.98, -19.06, -37.43, 68471.78, 39562.84)" gradientUnits="userSpaceOnUse"><stop offset="0" stop-color="#b7b7b7"/><stop offset="1" stop-color="#c3c3c3"/></linearGradient><linearGradient id="linear-gradient-23" x1="-1299.91" y1="1573.39" x2="-1298.31" y2="1571.78" gradientTransform="matrix(47.23, -24.05, -21.78, -42.77, 95849, 36250.39)" gradientUnits="userSpaceOnUse"><stop offset="0" stop-color="#c3c3c3"/><stop offset="1" stop-color="#e6e6e6"/></linearGradient><linearGradient id="linear-gradient-24" x1="-1303.6" y1="1574.23" x2="-1302" y2="1572.63" gradientTransform="matrix(31.19, -15.88, -20.88, -40.99, 73593.8, 44048.68)" gradientUnits="userSpaceOnUse"><stop offset="0" stop-color="#b4b4b4"/><stop offset="1" stop-color="#c6c6c6"/></linearGradient><linearGradient id="linear-gradient-25" x1="-1300.23" y1="1573.04" x2="-1298.62" y2="1571.43" gradientTransform="matrix(48.12, -24.51, -18.61, -36.53, 91929.03, 25816.32)" gradientUnits="userSpaceOnUse"><stop offset="0" stop-color="#acacac"/><stop offset="1" stop-color="#dfdfdf"/></linearGradient><linearGradient id="linear-gradient-26" x1="-1300.54" y1="1573.79" x2="-1298.94" y2="1572.18" gradientTransform="matrix(48.12, -24.51, -20.42, -40.1, 94794.21, 31442.53)" gradientUnits="userSpaceOnUse"><stop offset="0" stop-color="#f7f7f7"/><stop offset="1" stop-color="#f3f3f3"/></linearGradient><linearGradient id="linear-gradient-27" x1="-1299.13" y1="1560.35" x2="-1297.82" y2="1559.04" gradientTransform="matrix(62.38, -31.77, -11.35, -22.28, 98896.63, -6240.45)" gradientUnits="userSpaceOnUse"><stop offset="0" stop-color="#f7f7f7"/><stop offset="1" stop-color="#ebebeb"/></linearGradient><linearGradient id="linear-gradient-28" x1="-1300.35" y1="1567.6" x2="-1298.1" y2="1565.35" gradientTransform="matrix(48.12, -24.51, -17.7, -34.75, 90556.44, 22892.65)" gradientUnits="userSpaceOnUse"><stop offset="0" stop-color="#e6e6e6"/><stop offset="1" stop-color="#f6f6f6"/></linearGradient><linearGradient id="linear-gradient-29" x1="-1307.51" y1="1576.72" x2="-1305.91" y2="1575.11" gradientTransform="matrix(23.17, -11.8, -24.51, -48.12, 68912.87, 60651.25)" gradientUnits="userSpaceOnUse"><stop offset="0" stop-color="#b9b9b9"/><stop offset="1" stop-color="#e3e3e3"/></linearGradient><linearGradient id="linear-gradient-30" x1="-1302.93" y1="1576.35" x2="-1301.33" y2="1574.74" gradientTransform="matrix(37.43, -19.06, -24.96, -49.01, 88103.72, 52657.12)" gradientUnits="userSpaceOnUse"><stop offset="0" stop-color="#d1d1d1"/><stop offset="1" stop-color="#c6c6c6"/></linearGradient><linearGradient id="linear-gradient-31" x1="-1295.63" y1="1581.91" x2="-1294.02" y2="1580.3" gradientTransform="matrix(63.64, 6.78, 3.49, -32.81, 76982.8, 60905.4)" xlink:href="#linear-gradient-30"/><linearGradient id="linear-gradient-32" x1="-1295.46" y1="1582.32" x2="-1293.85" y2="1580.72" gradientTransform="matrix(35.8, 3.81, 3.92, -36.79, 40286.28, 63345.07)" gradientUnits="userSpaceOnUse"><stop offset="0" stop-color="#c8c8c8"/><stop offset="1" stop-color="#bababa"/></linearGradient><linearGradient id="linear-gradient-33" x1="-1295.15" y1="1583.89" x2="-1293.55" y2="1582.28" gradientTransform="matrix(66.62, 7.09, 6.04, -56.68, 76816.65, 99151.86)" gradientUnits="userSpaceOnUse"><stop offset="0" stop-color="#dfdfdf"/><stop offset="1" stop-color="#e2e2e2"/></linearGradient><linearGradient id="linear-gradient-34" x1="-1294.72" y1="1582.91" x2="-1293.12" y2="1581.31" gradientTransform="matrix(14.92, 1.59, 3.92, -36.79, 13276.27, 60468.92)" gradientUnits="userSpaceOnUse"><stop offset="0" stop-color="#aeaeae"/><stop offset="1" stop-color="#d0d0d0"/></linearGradient><linearGradient id="linear-gradient-35" x1="-1294.73" y1="1583.51" x2="-1293.12" y2="1581.9" gradientTransform="matrix(46.74, 4.98, 3.71, -34.8, 54820.05, 61694.05)" gradientUnits="userSpaceOnUse"><stop offset="0" stop-color="#919191"/><stop offset="1" stop-color="#c6c6c6"/></linearGradient><linearGradient id="linear-gradient-36" x1="-1294.3" y1="1583.99" x2="-1292.69" y2="1582.38" gradientTransform="matrix(34.8, 3.71, 3.07, -28.84, 40420.19, 50567.13)" gradientUnits="userSpaceOnUse"><stop offset="0" stop-color="#d8d8d8"/><stop offset="1" stop-color="#e0e0e0"/></linearGradient><linearGradient id="linear-gradient-37" x1="-1294.1" y1="1584.58" x2="-1292.49" y2="1582.97" gradientTransform="matrix(34.8, 3.71, 4.13, -38.78, 38743.66, 66309.76)" gradientUnits="userSpaceOnUse"><stop offset="0" stop-color="#dedede"/><stop offset="1" stop-color="#dedede"/></linearGradient><linearGradient id="linear-gradient-38" x1="-1292.91" y1="1585.22" x2="-1291.31" y2="1583.61" gradientTransform="matrix(21.88, 2.33, 6.46, -60.66, 18331.08, 99181.25)" gradientUnits="userSpaceOnUse"><stop offset="0" stop-color="#dbdbdb"/><stop offset="1" stop-color="#e6e6e6"/></linearGradient><linearGradient id="linear-gradient-39" x1="-1294.81" y1="1584.37" x2="-1293.2" y2="1582.76" gradientTransform="matrix(69.61, 7.41, 5.4, -50.71, 81766.6, 90066.67)" gradientUnits="userSpaceOnUse"><stop offset="0" stop-color="#c6c6c6"/><stop offset="1" stop-color="#c6c6c6"/></linearGradient><linearGradient id="linear-gradient-40" x1="-1293.7" y1="1585.04" x2="-1292.09" y2="1583.44" gradientTransform="matrix(37.79, 4.02, 6.35, -59.66, 39082.37, 99857.94)" gradientUnits="userSpaceOnUse"><stop offset="0" stop-color="#e0e0e0"/><stop offset="1" stop-color="#e0e0e0"/></linearGradient><linearGradient id="linear-gradient-41" x1="-1287.09" y1="1585.06" x2="-1285.49" y2="1583.46" gradientTransform="matrix(6.96, 0.74, 12.81, -120.32, -11038.27, 191690.7)" gradientUnits="userSpaceOnUse"><stop offset="0" stop-color="#eaeaea"/><stop offset="1" stop-color="#ddd"/></linearGradient><linearGradient id="linear-gradient-42" x1="-1295.02" y1="1584.12" x2="-1293.41" y2="1582.52" gradientTransform="matrix(76.57, 8.15, 6.04, -56.68, 89757.55, 100530.62)" gradientUnits="userSpaceOnUse"><stop offset="0" stop-color="#dfdfdf"/><stop offset="1" stop-color="#f6f6f6"/></linearGradient><linearGradient id="linear-gradient-43" x1="-1294.82" y1="1584.32" x2="-1293.22" y2="1582.72" gradientTransform="matrix(76.57, 8.15, 5.61, -52.7, 90430.93, 94213.31)" gradientUnits="userSpaceOnUse"><stop offset="0" stop-color="#d4d4d4"/><stop offset="1" stop-color="#e7e7e7"/></linearGradient><linearGradient id="linear-gradient-44" x1="-1294.4" y1="1584.68" x2="-1292.8" y2="1583.07" gradientTransform="matrix(69.61, 7.41, 5.61, -52.7, 81427.33, 93254.07)" gradientUnits="userSpaceOnUse"><stop offset="0" stop-color="#eaeaea"/><stop offset="1" stop-color="#e8e8e8"/></linearGradient><linearGradient id="linear-gradient-45" x1="-1297.17" y1="1582.92" x2="-1295.56" y2="1581.31" gradientTransform="matrix(27.84, 2.96, 7.2, -67.62, 24754.27, 111097.28)" gradientUnits="userSpaceOnUse"><stop offset="0" stop-color="#cecece"/><stop offset="1" stop-color="#cecece"/></linearGradient><linearGradient id="linear-gradient-46" x1="-1295.36" y1="1580.55" x2="-1294.52" y2="1579.72" gradientTransform="matrix(74.58, 7.94, 4.13, -38.78, 90138.51, 71796.32)" gradientUnits="userSpaceOnUse"><stop offset="0" stop-color="#f5f5f5"/><stop offset="1" stop-color="#f2f2f2"/></linearGradient><linearGradient id="linear-gradient-47" x1="-1295.78" y1="1581.85" x2="-1294.17" y2="1580.25" gradientTransform="matrix(63.64, 6.78, 4.87, -45.74, 74809.78, 81321.42)" gradientUnits="userSpaceOnUse"><stop offset="0" stop-color="#f0f0f0"/><stop offset="1" stop-color="#d6d6d6"/></linearGradient><linearGradient id="linear-gradient-48" x1="-1295.26" y1="1583.41" x2="-1293.66" y2="1581.8" gradientTransform="matrix(46.74, 4.98, 4.87, -45.74, 52977.48, 78995.93)" gradientUnits="userSpaceOnUse"><stop offset="0" stop-color="#b6b6b6"/><stop offset="1" stop-color="#e3e3e3"/></linearGradient><linearGradient id="linear-gradient-49" x1="-1294.59" y1="1583.59" x2="-1292.99" y2="1581.98" gradientTransform="matrix(41.76, 4.45, 3.71, -34.8, 48390.07, 60973.83)" gradientUnits="userSpaceOnUse"><stop offset="0" stop-color="#ccc"/><stop offset="1" stop-color="#dedede"/></linearGradient><linearGradient id="linear-gradient-50" x1="-1294.81" y1="1582.2" x2="-1293.21" y2="1580.59" gradientTransform="matrix(55.69, 5.93, 2.01, -18.89, 69104.71, 37663.06)" gradientUnits="userSpaceOnUse"><stop offset="0" stop-color="#e5e5e5"/><stop offset="1" stop-color="#e7e7e7"/></linearGradient><linearGradient id="linear-gradient-51" x1="-1296.98" y1="1580.02" x2="-1295.37" y2="1578.41" gradientTransform="matrix(51.71, 5.51, 3.07, -28.84, 62149.12, 52956.87)" xlink:href="#linear-gradient-18"/><linearGradient id="linear-gradient-52" x1="-1296.22" y1="1582.89" x2="-1294.62" y2="1581.28" gradientTransform="matrix(63.64, 6.78, 4.02, -37.79, 76080.47, 68815.27)" gradientUnits="userSpaceOnUse"><stop offset="0" stop-color="#c6c6c6"/><stop offset="1" stop-color="#d8d8d8"/></linearGradient><linearGradient id="linear-gradient-53" x1="-1295.56" y1="1579.14" x2="-1293.96" y2="1577.53" gradientTransform="matrix(126.29, 13.45, 1.48, -13.92, 161232.46, 39651.83)" gradientUnits="userSpaceOnUse"><stop offset="0" stop-color="#d6d6d6"/><stop offset="1" stop-color="#f2f2f2"/></linearGradient><linearGradient id="linear-gradient-54" x1="-1296.33" y1="1581.85" x2="-1294.72" y2="1580.25" gradientTransform="matrix(41.76, 4.45, 2.86, -26.85, 49619.28, 48460.41)" gradientUnits="userSpaceOnUse"><stop offset="0" stop-color="#cecece"/><stop offset="1" stop-color="#dedede"/></linearGradient><linearGradient id="linear-gradient-55" x1="-1295.62" y1="1582.31" x2="-1294.01" y2="1580.7" gradientTransform="matrix(66.62, 7.09, 3.49, -32.81, 80842.21, 61349.01)" gradientUnits="userSpaceOnUse"><stop offset="0" stop-color="#e6e6e6"/><stop offset="1" stop-color="#f5f5f5"/></linearGradient><radialGradient id="radial-gradient-2" cx="-424.77" cy="-53.98" r="40.2" gradientTransform="matrix(9.56, -1.62, 1.24, 7.29, 4453.52, -172.99)" gradientUnits="userSpaceOnUse"><stop offset="0" stop-color="#ba5416"/><stop offset="0" stop-color="#b75316"/><stop offset="0.08" stop-color="#8d3f11"/><stop offset="0.17" stop-color="#672f0c"/><stop offset="0.26" stop-color="#472008"/><stop offset="0.36" stop-color="#2d1405"/><stop offset="0.47" stop-color="#190b03"/><stop offset="0.59" stop-color="#0b0501"/><stop offset="0.74" stop-color="#020100"/><stop offset="1"/></radialGradient><radialGradient id="radial-gradient-3" cx="-424.77" cy="-53.98" r="28.11" xlink:href="#radial-gradient-2"/><radialGradient id="radial-gradient-4" cx="-462.74" cy="-45.55" r="28.67" xlink:href="#radial-gradient-2"/><radialGradient id="radial-gradient-5" cx="-462.74" cy="-45.55" r="20.05" xlink:href="#radial-gradient-2"/></defs><title>Bgwhy</title><g class="cls-2"><g id="Layer_1" data-name="Layer 1"><rect class="cls-3" x="14" y="24.85" width="288" height="288"/><g class="cls-4"><g id="triangle36" class="cls-5"><polygon class="cls-6" points="103.5 253.82 149.93 221.17 181.02 250.38 103.5 253.82"/></g><g id="triangle36-2" data-name="triangle36" class="cls-5"><polygon class="cls-7" points="197.63 236.73 254.06 198.98 302.84 192.16 197.63 236.73"/></g><g id="triangle36-3" data-name="triangle36" class="cls-5"><polygon class="cls-8" points="259.22 212.45 247.35 160.84 307.99 205.63 259.22 212.45"/></g><g id="triangle36-4" data-name="triangle36" class="cls-5"><polygon class="cls-9" points="310.38 254.78 304.22 268.22 310.38 268.18 310.38 254.78"/></g><g id="triangle36-5" data-name="triangle36" class="cls-5"><polygon class="cls-10" points="269.77 300.8 293.04 243.91 263.41 217.56 269.77 300.8"/></g><g id="triangle36-6" data-name="triangle36" class="cls-5"><polygon class="cls-11" points="310.38 274.9 285.94 298.52 310.38 320.25 310.38 274.9"/></g><g id="triangle36-7" data-name="triangle36" class="cls-5"><polygon class="cls-12" points="310.38 277.65 285.24 312.93 310.38 288.63 310.38 277.65"/></g><g id="triangle36-8" data-name="triangle36" class="cls-5"><polygon class="cls-13" points="90.28 267.97 90.9 255.04 97.59 285.86 90.28 267.97"/></g><g id="triangle36-9" data-name="triangle36" class="cls-5"><polygon class="cls-14" points="101.92 252.96 179.43 249.51 108.61 283.78 101.92 252.96"/></g><g id="triangle36-10" data-name="triangle36" class="cls-5"><polygon class="cls-15" points="192.31 241.37 297.52 196.79 121.48 275.63 192.31 241.37"/></g><g id="triangle36-11" data-name="triangle36" class="cls-5"><polygon class="cls-16" points="80.81 272.25 81.43 259.32 20.62 288.49 80.81 272.25"/></g><g id="triangle36-12" data-name="triangle36" class="cls-5"><polygon class="cls-17" points="7.38 260.96 7.38 285.26 22.93 279.3 7.38 260.96"/></g><g id="triangle36-13" data-name="triangle36" class="cls-5"><polygon class="cls-18" points="88.6 286.51 81.29 268.61 47.76 298.3 88.6 286.51"/></g><g id="triangle36-14" data-name="triangle36" class="cls-5"><polygon class="cls-19" points="18.55 287.79 78.73 271.55 45.21 301.24 18.55 287.79"/></g><g id="triangle36-15" data-name="triangle36" class="cls-5"><polygon class="cls-20" points="7.38 289.77 7.38 307.2 32.67 302.52 7.38 289.77"/></g><g id="triangle36-16" data-name="triangle36" class="cls-5"><polygon class="cls-21" points="310.38 137.33 250.35 161.18 310.38 205.51 310.38 137.33"/></g><g id="triangle36-17" data-name="triangle36" class="cls-5"><polygon class="cls-22" points="310.38 212.22 284.84 192.82 261.57 249.71 310.38 230.31 310.38 212.22"/></g><g id="triangle36-18" data-name="triangle36" class="cls-5"><polygon class="cls-23" points="310.38 181.62 293.04 181.75 310.38 194.93 310.38 181.62"/></g><g id="triangle36-19" data-name="triangle36" class="cls-5"><polygon class="cls-24" points="162.01 227.32 193.1 256.53 183.17 176.91 162.01 227.32"/></g><g id="triangle36-20" data-name="triangle36" class="cls-5"><polygon class="cls-25" points="148.55 255.41 254.72 178.52 206.59 271.5 148.55 255.41"/></g><g id="triangle36-21" data-name="triangle36" class="cls-5"><polygon class="cls-26" points="197.56 257.65 254 219.9 187.64 178.03 197.56 257.65"/></g><g id="triangle36-22" data-name="triangle36" class="cls-5"><polygon class="cls-27" points="257.23 225.36 245.36 173.76 190.86 183.49 257.23 225.36"/></g><g id="triangle36-23" data-name="triangle36" class="cls-5"><polygon class="cls-28" points="263.28 268.61 256.92 185.38 208.78 278.35 263.28 268.61"/></g><g id="triangle36-24" data-name="triangle36" class="cls-5"><polygon class="cls-29" points="110.39 273.87 156.81 241.22 86.89 202.97 110.39 273.87"/></g><g id="triangle36-25" data-name="triangle36" class="cls-5"><polygon class="cls-30" points="163.72 248.72 184.88 198.31 93.79 210.47 163.72 248.72"/></g><g id="triangle36-26" data-name="triangle36" class="cls-5"><polygon class="cls-31" points="131.53 201.45 189.57 217.53 98.48 229.69 131.53 201.45"/></g><g id="triangle36-27" data-name="triangle36" class="cls-5"><polygon class="cls-32" points="163.38 317.81 269.55 240.92 247.04 207.34 163.38 317.81"/></g><g id="triangle36-28" data-name="triangle36" class="cls-5"><polygon class="cls-33" points="310.38 260.59 265.82 286.64 288.33 320.22 310.38 289.27 310.38 260.59"/></g><g id="triangle36-29" data-name="triangle36" class="cls-5"><polygon class="cls-34" points="7.38 257.79 32.82 287.79 17.8 198.15 7.38 215.22 7.38 257.79"/></g><g id="triangle36-30" data-name="triangle36" class="cls-5"><polygon class="cls-35" points="36.75 295.78 97.56 266.61 21.73 206.14 36.75 295.78"/></g><g id="triangle36-31" data-name="triangle36" class="cls-5"><polygon class="cls-36" points="58.49 265.13 108.8 217.21 164.74 237.7 58.49 265.13"/></g><g id="triangle36-32" data-name="triangle36" class="cls-5"><polygon class="cls-37" points="104.66 236.29 160.5 197.03 160.6 256.78 104.66 236.29"/></g><g id="triangle36-33" data-name="triangle36" class="cls-5"><polygon class="cls-38" points="69.53 237.94 175.78 210.51 170.88 302.01 69.53 237.94"/></g><g id="triangle36-34" data-name="triangle36" class="cls-5"><polygon class="cls-39" points="169.34 168.52 169.44 228.26 189.2 209.38 169.34 168.52"/></g><g id="triangle36-35" data-name="triangle36" class="cls-5"><polygon class="cls-40" points="170.49 160.57 190.36 201.44 247.39 151 170.49 160.57"/></g><g id="triangle36-36" data-name="triangle36" class="cls-5"><polygon class="cls-41" points="247.49 86.91 248.94 133.88 299.96 124.79 247.49 86.91"/></g><g id="triangle36-37" data-name="triangle36" class="cls-5"><polygon class="cls-42" points="245.31 93.29 277.27 66.02 297.78 131.16 245.31 93.29"/></g><g id="triangle36-38" data-name="triangle36" class="cls-5"><polygon class="cls-43" points="310.38 33.41 278.05 59.52 298.56 124.66 310.38 62.51 310.38 33.41"/></g><g id="triangle36-39" data-name="triangle36" class="cls-5"><polygon class="cls-44" points="197.21 172.33 254.24 121.9 306.24 209.77 197.21 172.33"/></g><g id="triangle36-40" data-name="triangle36" class="cls-5"><polygon class="cls-45" points="255.36 113.43 306.38 104.33 307.36 201.3 255.36 113.43"/></g><g id="triangle36-41" data-name="triangle36" class="cls-5"><polygon class="cls-46" points="310.38 72.31 303.88 106.49 304.85 203.46 310.38 141.95 310.38 72.31"/></g><g id="triangle36-42" data-name="triangle36" class="cls-5"><polygon class="cls-47" points="185.34 171.3 180.44 262.8 301.46 248.24 185.34 171.3"/></g><g id="triangle36-43" data-name="triangle36" class="cls-5"><polygon class="cls-48" points="183.1 177.57 202.87 158.69 299.22 254.51 183.1 177.57"/></g><g id="triangle36-44" data-name="triangle36" class="cls-5"><polygon class="cls-49" points="310.38 191.85 203.28 155.08 299.63 250.9 310.38 201.4 310.38 191.85"/></g><g id="triangle36-45" data-name="triangle36" class="cls-5"><polygon class="cls-50" points="31.35 313.12 81.66 265.2 44.51 204.74 31.35 313.12"/></g><g id="triangle36-46" data-name="triangle36" class="cls-5"><polygon class="cls-51" points="24.83 242.93 35.48 259.13 144.27 207.76 24.83 242.93"/></g><g id="triangle36-47" data-name="triangle36" class="cls-5"><polygon class="cls-52" points="40.68 248.33 133.68 269.54 149.48 196.95 40.68 248.33"/></g><g id="triangle36-48" data-name="triangle36" class="cls-5"><polygon class="cls-53" points="163.13 183.33 240.02 173.76 178.93 110.75 163.13 183.33"/></g><g id="triangle36-49" data-name="triangle36" class="cls-5"><polygon class="cls-54" points="238.15 127.3 239.61 174.27 178.51 111.26 238.15 127.3"/></g><g id="triangle36-50" data-name="triangle36" class="cls-5"><polygon class="cls-55" points="236.27 130.69 268.23 103.41 176.63 114.65 236.27 130.69"/></g><g id="triangle36-51" data-name="triangle36" class="cls-5"><polygon class="cls-56" points="7.38 299.93 7.38 303.61 13.38 303.77 7.38 299.93"/></g><g id="triangle36-52" data-name="triangle36" class="cls-5"><polygon class="cls-57" points="7.38 238.17 7.38 275.04 51.71 270.17 7.38 238.17"/></g><g id="triangle36-53" data-name="triangle36" class="cls-5"><polygon class="cls-58" points="7.38 269.39 169.48 276.4 69.93 256.11 7.38 262.97 7.38 269.39"/></g><g id="triangle36-54" data-name="triangle36" class="cls-5"><polygon class="cls-59" points="7.38 252.17 49.96 282.91 48.16 239.13 7.38 238.01 7.38 252.17"/></g><g id="triangle36-55" data-name="triangle36" class="cls-5"><polygon class="cls-60" points="74.38 226.6 175.73 290.67 76.18 270.38 74.38 226.6"/></g><path class="cls-61" d="M323.48,311.13v-336H6.61A327.73,327.73,0,0,0-14,2.77V286.7A264.66,264.66,0,0,0,6.32,311.13Z" transform="translate(14 24.85)"/><path class="cls-62" d="M190.59,311.13H323.48v-336H149.73C83.47,24.15,46.32,95.09,58.41,166.46,69.61,232.58,120.58,284.43,190.59,311.13Z" transform="translate(14 24.85)"/><path class="cls-63" d="M228.11,311.13c19.2-35.47,27.09-74.47,20.47-113.6C231.05,94.09,118.1,24.87-14,30V311.13Z" transform="translate(14 24.85)"/><path class="cls-64" d="M138.76,311.13c22.64-29.73,33.34-64.61,27.41-99.64C154.07,140.06,76.88,92-14,94.22V311.13Z" transform="translate(14 24.85)"/></g></g></g></svg>