<svg xmlns="http://www.w3.org/2000/svg" xmlns:xlink="http://www.w3.org/1999/xlink" viewBox="0 0 527.67 480.38"><defs><style>.cls-1{fill:url(#Naamloos_verloop_20);}</style><linearGradient id="Naamloos_verloop_20" x1="241.92" y1="356.95" x2="750.06" y2="356.95" gradientTransform="translate(10 43)" gradientUnits="userSpaceOnUse"><stop offset="0" stop-color="#3f2d87"/><stop offset="0.12" stop-color="#5d2d87"/><stop offset="0.17" stop-color="#4b2d87"/><stop offset="0.43" stop-color="#9b2b87"/><stop offset="0.48" stop-color="#aa2b87"/><stop offset="1" stop-color="#d51317"/></linearGradient></defs><title>FaviconS</title><g id="SVGreat_black" data-name="SVGreat black"><path d="M702.66,150h4.83q10.68,0,28.47,16.52l2.29,2.29h2.29l-2.29,9.41,2.29,28.47q-3.82,37.88-25.93,37.87H700.37q-92.52,0-231.57,63.81v4.57h2.29q171.83,14.25,189.12,47.28,16.51,9.67,16.52,33.3-6.36,77.79-18.81,77.79a464.07,464.07,0,0,1-118.2,63.8q-97.36,33.3-267.16,75.75l-2.29-2.29V606l16.52-6.86v-4.83l-25.93,4.83v-2.54q0-5.34,11.7-7.12v-4.58h-7.12V580.1h4.83v-2.28L256,573l2.29-2.29v-7.12q-9.39,0-9.4-7.12l-2.29,2.29H241.8v-2.29l2.29-2.28v-2.29h-4.58q0-4.83-7.12-4.83v-2.29q0-11.94,191.42-66.35,127.09-44,146.67-59-201.08-13.21-201.07-42.7Q345.77,361.5,345.77,332q0-27.19,28.47-63.81Q547.09,150,702.66,150Zm-423,420.7V573h4.83V570.7Z" transform="translate(-232.39 -150)"/><path d="M702.66,150h4.83q10.68,0,28.47,16.52l2.29,2.29h2.29l-2.29,9.41,2.29,28.47q-3.82,37.88-25.93,37.87H700.37q-92.52,0-231.57,63.81v4.57h2.29q171.83,14.25,189.12,47.28,16.51,9.67,16.52,33.3-6.36,77.79-18.81,77.79a464.07,464.07,0,0,1-118.2,63.8q-97.36,33.3-267.16,75.75l-2.29-2.29V606l16.52-6.86v-4.83l-25.93,4.83v-2.54q0-5.34,11.7-7.12v-4.58h-7.12V580.1h4.83v-2.28L256,573l2.29-2.29v-7.12q-9.39,0-9.4-7.12l-2.29,2.29H241.8v-2.29l2.29-2.28v-2.29h-4.58q0-4.83-7.12-4.83v-2.29q0-11.94,191.42-66.35,127.09-44,146.67-59-201.08-13.21-201.07-42.7Q345.77,361.5,345.77,332q0-27.19,28.47-63.81Q547.09,150,702.66,150Zm-423,420.7V573h4.83V570.7Z" transform="translate(-232.39 -150)"/></g><g id="SVGreat_colour" data-name="SVGreat colour"><path d="M722.18,169.52H727q10.68,0,28.47,16.53l2.29,2.28h2.29l-2.29,9.41,2.29,28.47q-3.81,37.88-25.93,37.87H719.9q-92.53,0-231.58,63.81v4.57h2.29q171.82,14.25,189.12,47.28,16.53,9.67,16.53,33.3-6.36,77.79-18.82,77.79a463.73,463.73,0,0,1-118.2,63.8q-97.36,33.3-267.16,75.75l-2.29-2.28v-2.55l16.52-6.86v-4.83l-25.92,4.83v-2.54q0-5.34,11.69-7.12v-4.57H285v-4.83h4.83v-2.29l-14.23-4.83,2.28-2.29V583.1q-9.39,0-9.4-7.11l-2.29,2.28h-4.83V576l2.29-2.29v-2.29H259q0-4.83-7.11-4.83v-2.29q0-11.94,191.41-66.34Q570.42,454,590,439q-201.08-13.2-201.07-42.7Q365.29,381,365.29,351.53q0-27.19,28.47-63.81Q566.61,169.52,722.18,169.52Zm-423,420.7v2.29H304v-2.29Z" transform="translate(-232.39 -150)"/><path class="cls-1" d="M722.18,169.52H727q10.68,0,28.47,16.53l2.29,2.28h2.29l-2.29,9.41,2.29,28.47q-3.81,37.88-25.93,37.87H719.9q-92.53,0-231.58,63.81v4.57h2.29q171.82,14.25,189.12,47.28,16.53,9.67,16.53,33.3-6.36,77.79-18.82,77.79a463.73,463.73,0,0,1-118.2,63.8q-97.36,33.3-267.16,75.75l-2.29-2.28v-2.55l16.52-6.86v-4.83l-25.92,4.83v-2.54q0-5.34,11.69-7.12v-4.57H285v-4.83h4.83v-2.29l-14.23-4.83,2.28-2.29V583.1q-9.39,0-9.4-7.11l-2.29,2.28h-4.83V576l2.29-2.29v-2.29H259q0-4.83-7.11-4.83v-2.29q0-11.94,191.41-66.34Q570.42,454,590,439q-201.08-13.2-201.07-42.7Q365.29,381,365.29,351.53q0-27.19,28.47-63.81Q566.61,169.52,722.18,169.52Zm-423,420.7v2.29H304v-2.29Z" transform="translate(-232.39 -150)"/></g></svg>