<svg id="OBJECTS" xmlns="http://www.w3.org/2000/svg" xmlns:xlink="http://www.w3.org/1999/xlink" viewBox="0 0 3338.54 985.8"><defs><style>.cls-1,.cls-4{fill:none;}.cls-2{clip-path:url(#clip-path);}.cls-3{opacity:0.3;}.cls-4{stroke:#fff;stroke-miterlimit:10;stroke-width:0.5px;}.cls-5{fill:url(#linear-gradient);}.cls-6{fill:url(#linear-gradient-2);}.cls-7{fill:url(#linear-gradient-3);}.cls-8{fill:url(#linear-gradient-4);}.cls-9{fill:url(#linear-gradient-5);}.cls-10{fill:url(#linear-gradient-6);}.cls-11{fill:url(#linear-gradient-7);}.cls-12{fill:url(#linear-gradient-8);}.cls-13{fill:url(#linear-gradient-9);}.cls-14{fill:url(#linear-gradient-10);}.cls-15{fill:url(#linear-gradient-11);}.cls-16{fill:url(#radial-gradient);}.cls-17{fill:url(#radial-gradient-2);}.cls-18{fill:url(#linear-gradient-12);}.cls-19{fill:url(#radial-gradient-3);}.cls-20{fill:url(#radial-gradient-4);}.cls-21{fill:url(#radial-gradient-5);}.cls-22{fill:url(#radial-gradient-6);}.cls-23{fill:url(#linear-gradient-13);}</style><clipPath id="clip-path" transform="translate(1308.06 170.89)"><rect class="cls-1" width="800" height="800"/></clipPath><linearGradient id="linear-gradient" x1="400.4" y1="594.28" x2="400.4" y2="512.99" gradientUnits="userSpaceOnUse"><stop offset="0.01" stop-color="#1d6f77"/><stop offset="0.25" stop-color="#195e69"/><stop offset="0.73" stop-color="#0f3143"/><stop offset="1" stop-color="#09152c"/></linearGradient><linearGradient id="linear-gradient-2" x1="400.4" y1="779.66" x2="400.4" y2="569.67" xlink:href="#linear-gradient"/><linearGradient id="linear-gradient-3" x1="400.4" y1="814.66" x2="400.4" y2="604.67" gradientUnits="userSpaceOnUse"><stop offset="0" stop-color="#09152c"/><stop offset="0.27" stop-color="#0f3143"/><stop offset="0.75" stop-color="#195e69"/><stop offset="0.99" stop-color="#1d6f77"/></linearGradient><linearGradient id="linear-gradient-4" x1="-234.29" y1="632.61" x2="-169.63" y2="633.36" gradientTransform="matrix(-1, 0, 0, 1, 1308.06, 170.89)" xlink:href="#linear-gradient"/><linearGradient id="linear-gradient-5" x1="-214.96" y1="594" x2="258.96" y2="594" gradientTransform="matrix(-1, 0, 0, 1, 0, 0)" xlink:href="#linear-gradient-3"/><linearGradient id="linear-gradient-6" x1="-186.37" y1="681.54" x2="258.96" y2="681.54" gradientTransform="matrix(-1, 0, 0, 1, 1308.06, 170.89)" xlink:href="#linear-gradient-3"/><linearGradient id="linear-gradient-7" x1="-835.35" y1="632.61" x2="-770.69" y2="633.36" gradientTransform="translate(2720.99 170.89)" xlink:href="#linear-gradient"/><linearGradient id="linear-gradient-8" x1="-816.02" y1="594" x2="-342.1" y2="594" gradientTransform="translate(1412.93)" xlink:href="#linear-gradient-3"/><linearGradient id="linear-gradient-9" x1="-787.43" y1="681.54" x2="-342.1" y2="681.54" gradientTransform="translate(2720.99 170.89)" xlink:href="#linear-gradient-3"/><linearGradient id="linear-gradient-10" x1="404.91" y1="214.31" x2="404.91" y2="341.03" gradientTransform="translate(809.82 276.31) rotate(180)" xlink:href="#linear-gradient-3"/><linearGradient id="linear-gradient-11" x1="1706.38" y1="272.13" x2="1706.38" y2="176.45" xlink:href="#linear-gradient"/><radialGradient id="radial-gradient" cx="404.91" cy="-751.55" r="154.63" gradientTransform="translate(0 114.17) scale(1 0.06)" gradientUnits="userSpaceOnUse"><stop offset="0.01" stop-color="#1d6f77"/><stop offset="0.19" stop-color="#1c6a73"/><stop offset="0.42" stop-color="#185a66"/><stop offset="0.67" stop-color="#134151"/><stop offset="0.94" stop-color="#0b1e34"/><stop offset="1" stop-color="#09152c"/></radialGradient><radialGradient id="radial-gradient-2" cx="404.75" cy="79.79" r="66.77" gradientTransform="translate(0 54.14) scale(1 0.32)" gradientUnits="userSpaceOnUse"><stop offset="0.01" stop-color="#fff"/><stop offset="0.12" stop-color="#f0f9fa"/><stop offset="0.14" stop-color="#ecf7f9"/><stop offset="0.3" stop-color="#d4edf1"/><stop offset="0.63" stop-color="#95d2dc"/><stop offset="1" stop-color="#49b1c2"/></radialGradient><linearGradient id="linear-gradient-12" x1="411.94" y1="468.15" x2="411.94" y2="15.26" gradientTransform="translate(814.55 261.99) rotate(180)" gradientUnits="userSpaceOnUse"><stop offset="0.02" stop-color="#fff" stop-opacity="0.4"/><stop offset="0.19" stop-color="#49b1c2"/><stop offset="1" stop-color="#fff" stop-opacity="0"/></linearGradient><radialGradient id="radial-gradient-3" cx="402.91" cy="633.13" r="239.1" gradientTransform="translate(0 375.99) scale(1 0.41)" xlink:href="#linear-gradient"/><radialGradient id="radial-gradient-4" cx="404.91" cy="560.02" r="216.79" gradientTransform="translate(0 455.91) scale(1 0.27)" gradientUnits="userSpaceOnUse"><stop offset="0" stop-color="#09152c"/><stop offset="0.23" stop-color="#1e475c"/><stop offset="0.47" stop-color="#307588"/><stop offset="0.69" stop-color="#3e96a8"/><stop offset="0.87" stop-color="#46aabb"/><stop offset="0.99" stop-color="#49b1c2"/></radialGradient><radialGradient id="radial-gradient-5" cx="404.91" cy="566.96" r="140.75" gradientTransform="translate(1308.06 638.85) scale(1 0.26)" xlink:href="#radial-gradient"/><radialGradient id="radial-gradient-6" cx="403.58" cy="563.39" r="75.43" gradientTransform="translate(1308.06 582.77) scale(1 0.34)" xlink:href="#radial-gradient-2"/><linearGradient id="linear-gradient-13" x1="407.28" y1="928.26" x2="407.28" y2="459.93" gradientTransform="matrix(1, 0, 0, 1, 0, 0)" xlink:href="#linear-gradient-12"/></defs><title>future</title><g class="cls-2"><g class="cls-3"><polyline class="cls-4" points="1319.77 0 1319.77 672.92 0.06 984.59"/><polyline class="cls-4" points="1330.82 0 1330.82 672.92 96.06 985.55"/><polyline class="cls-4" points="1341.86 0 1341.86 672.92 209.72 982.52"/><polyline class="cls-4" points="1352.9 0 1352.9 672.92 291.06 985.55"/><polyline class="cls-4" points="1363.94 0 1363.94 672.92 357.06 984.59"/><polyline class="cls-4" points="1374.98 0 1374.98 672.92 420.06 985.55"/><polyline class="cls-4" points="1386.02 0 1386.02 672.92 501.06 985.55"/><polyline class="cls-4" points="1397.06 0 1397.06 672.92 562.39 984.59"/><polyline class="cls-4" points="1408.11 0 1408.11 672.92 621.72 984.59"/><polyline class="cls-4" points="1419.15 0 1419.15 672.92 670.39 984.59"/><polyline class="cls-4" points="1430.19 0 1430.19 672.92 717.72 984.59"/><polyline class="cls-4" points="1441.23 0 1441.23 672.92 754.39 985.55"/><polyline class="cls-4" points="1452.27 0 1452.27 672.92 805.72 982.52"/><polyline class="cls-4" points="1463.31 0 1463.31 672.92 831.73 985.55"/><polyline class="cls-4" points="1474.35 0 1474.35 672.92 875.73 984.59"/><polyline class="cls-4" points="1485.4 0 1485.4 672.92 907.72 984.59"/><polyline class="cls-4" points="1496.44 0 1496.44 672.92 950.09 985.55"/><polyline class="cls-4" points="1507.48 0 1507.48 672.92 990.39 984.59"/><polyline class="cls-4" points="1518.52 0 1518.52 672.92 1031.72 984.59"/><polyline class="cls-4" points="1529.56 0 1529.56 672.92 1071.06 984.59"/><polyline class="cls-4" points="1540.6 0 1540.6 672.92 1111.06 984.59"/><polyline class="cls-4" points="1551.64 0 1551.64 672.92 1150.39 984.59"/><polyline class="cls-4" points="1562.69 0 1562.69 672.92 1189.06 984.59"/><polyline class="cls-4" points="1573.73 0 1573.73 672.92 1226.4 984.59"/><polyline class="cls-4" points="1584.77 0 1584.77 672.92 1266.13 984.59"/><polyline class="cls-4" points="1595.81 0 1595.81 672.92 1308.06 984.59"/><polyline class="cls-4" points="1606.85 0 1606.85 672.92 1344.39 984.59"/><polyline class="cls-4" points="1617.89 0 1617.89 672.92 1384.39 984.59"/><polyline class="cls-4" points="1628.93 0 1628.93 672.92 1419.15 984.59"/><polyline class="cls-4" points="1639.98 0 1639.98 672.92 1459.72 984.59"/><polyline class="cls-4" points="1651.02 0 1651.02 672.92 1496.44 982.52"/><polyline class="cls-4" points="1662.06 0 1662.06 672.92 1533.06 984.59"/><polyline class="cls-4" points="1673.1 0 1673.1 672.92 1573.73 984.59"/><polyline class="cls-4" points="1684.14 0 1684.14 672.92 1610.39 982.52"/><polyline class="cls-4" points="1695.18 0 1695.18 672.92 1651.02 982.52"/><polyline class="cls-4" points="1706.23 0 1706.23 672.92 1689.72 984.59"/><polyline class="cls-4" points="2103.72 0 2103.72 672.92 3338.48 985.55"/><polyline class="cls-4" points="2092.68 0 2092.68 672.92 3224.81 982.52"/><polyline class="cls-4" points="2081.64 0 2081.64 672.92 3143.48 985.55"/><polyline class="cls-4" points="2070.6 0 2070.6 672.92 3077.48 984.59"/><polyline class="cls-4" points="2059.55 0 2059.55 672.92 3014.48 985.55"/><polyline class="cls-4" points="2048.51 0 2048.51 672.92 2933.48 985.55"/><polyline class="cls-4" points="2037.47 0 2037.47 672.92 2872.14 984.59"/><polyline class="cls-4" points="2026.43 0 2026.43 672.92 2812.81 984.59"/><polyline class="cls-4" points="2015.39 0 2015.39 672.92 2764.14 984.59"/><polyline class="cls-4" points="2004.35 0 2004.35 672.92 2716.81 984.59"/><polyline class="cls-4" points="1993.31 0 1993.31 672.92 2680.14 985.55"/><polyline class="cls-4" points="1982.26 0 1982.26 672.92 2628.81 982.52"/><polyline class="cls-4" points="1971.22 0 1971.22 672.92 2602.81 985.55"/><polyline class="cls-4" points="1960.18 0 1960.18 672.92 2558.81 984.59"/><polyline class="cls-4" points="1949.14 0 1949.14 672.92 2526.81 984.59"/><polyline class="cls-4" points="1938.1 0 1938.1 672.92 2484.44 985.55"/><polyline class="cls-4" points="1927.06 0 1927.06 672.92 2444.14 984.59"/><polyline class="cls-4" points="1916.01 0 1916.01 672.92 2402.81 984.59"/><polyline class="cls-4" points="1904.97 0 1904.97 672.92 2363.48 984.59"/><polyline class="cls-4" points="1893.93 0 1893.93 672.92 2323.48 984.59"/><polyline class="cls-4" points="1882.89 0 1882.89 672.92 2284.14 984.59"/><polyline class="cls-4" points="1871.85 0 1871.85 672.92 2245.48 984.59"/><polyline class="cls-4" points="1860.81 0 1860.81 672.92 2208.13 984.59"/><polyline class="cls-4" points="1849.77 0 1849.77 672.92 2168.41 984.59"/><polyline class="cls-4" points="1838.72 0 1838.72 672.92 2126.48 984.59"/><polyline class="cls-4" points="1827.68 0 1827.68 672.92 2090.14 984.59"/><polyline class="cls-4" points="1816.64 0 1816.64 672.92 2050.14 984.59"/><polyline class="cls-4" points="1805.6 0 1805.6 672.92 2015.39 984.59"/><polyline class="cls-4" points="1794.56 0 1794.56 672.92 1974.81 984.59"/><polyline class="cls-4" points="1783.52 0 1783.52 672.92 1938.1 982.52"/><polyline class="cls-4" points="1772.47 0 1772.47 672.92 1901.48 984.59"/><polyline class="cls-4" points="1761.43 0 1761.43 672.92 1860.81 984.59"/><polyline class="cls-4" points="1750.39 0 1750.39 672.92 1827.68 984.59"/><polyline class="cls-4" points="1739.35 0 1739.35 672.92 1794.56 985.55"/><polyline class="cls-4" points="1728.31 0 1728.31 672.92 1761.43 984.59"/><polyline class="cls-4" points="1717.27 0 1717.27 672.92 1728.31 984.59"/></g><path class="cls-5" d="M-339.25,621.79s364.86-75,744.16-75,735.14,75,735.14,75v135H-339.25v-129" transform="translate(1308.06 170.89)"/><path class="cls-6" d="M-339.25,644.67s364.86-75,744.16-75,735.14,75,735.14,75v135H-339.25v-129" transform="translate(1308.06 170.89)"/><path class="cls-7" d="M-339.25,679.67s364.86-75,744.16-75,735.14,75,735.14,75v135H-339.25v-129" transform="translate(1308.06 170.89)"/><polygon class="cls-8" points="1523.02 717.68 1523.02 847.43 1494.43 890.1 1494.43 772.77 1523.02 717.68"/><path class="cls-9" d="M186.37,601.88,215,546.79S-131,556.21-224,580.21l-35,61Z" transform="translate(1308.06 170.89)"/><polyline class="cls-10" points="1494.43 890.1 1049.1 932.1 1049.1 812.1 1494.43 772.77 1494.43 892.3"/><polygon class="cls-11" points="1904.97 717.68 1904.97 847.43 1933.56 890.1 1933.56 772.77 1904.97 717.68"/><path class="cls-12" d="M625.5,601.88l-28.59-55.09s345.92,9.42,438.92,33.42l35,61Z" transform="translate(1308.06 170.89)"/><polyline class="cls-13" points="1933.56 890.1 2378.89 932.1 2378.89 812.1 1933.56 772.77 1933.56 892.3"/><path class="cls-14" d="M249.11,69h311.6s27.45-22.72,27.45-58.72c0-45.33-102.67-68-183.25-68-75.42,0-183.24,22.67-183.24,68C221.67,46.28,249.11,69,249.11,69Z" transform="translate(1308.06 170.89)"/><rect class="cls-15" x="1182.83" y="142.78" width="1047.1" height="60.85"/><path class="cls-16" d="M560.91,67.09c0,5-69.84,9.09-156,9.09s-156-4.07-156-9.09S318.75,58,404.91,58,560.91,62.08,560.91,67.09Z" transform="translate(1308.06 170.89)"/><path class="cls-17" d="M473.91,67.62c0,2.58-30.89,14.33-69,14.33s-69-11.75-69-14.33S366.8,63,404.91,63,473.91,65,473.91,67.62Z" transform="translate(1308.06 170.89)"/><path class="cls-18" d="M340.53,68,179.85,518.62H625.37l-156-449.44S415.4,62.29,340.53,68Z" transform="translate(1308.06 170.89)"/></g><path class="cls-19" d="M560.71,605.77H249.11s-27.44,22.72-27.44,58.72c0,45.33,102.66,68,183.24,68,75.42,0,183.25-22.67,183.25-68C588.16,628.49,560.71,605.77,560.71,605.77Z" transform="translate(1308.06 170.89)"/><path class="cls-20" d="M404.91,569.06c-86.16,0-156,18.14-156,40.51s69.84,40.5,156,40.5,156-18.13,156-40.5S491.07,569.06,404.91,569.06Z" transform="translate(1308.06 170.89)"/><ellipse class="cls-21" cx="1712.97" cy="782.83" rx="130.67" ry="33.93"/><ellipse class="cls-22" cx="1712.97" cy="782.68" rx="68.59" ry="20.03"/><path class="cls-23" d="M340.5,606.09l-156-449.44H630L469.35,607.29s-2.72,18.8-64.36,17.63C339.57,623.68,340.5,606.09,340.5,606.09Z" transform="translate(1308.06 170.89)"/></svg>