<?xml version="1.0" encoding="utf-8"?>
<!-- Generator: Adobe Illustrator 22.1.0, SVG Export Plug-In . SVG Version: 6.00 Build 0)  -->
<svg version="1.1" xmlns="http://www.w3.org/2000/svg" xmlns:xlink="http://www.w3.org/1999/xlink" x="0px" y="0px"
	 viewBox="0 0 1024 768" style="enable-background:new 0 0 1024 768;" xml:space="preserve">
<style type="text/css">
	.st0{fill:none;}
	.st1{font-family:'lazer84';}
	.st2{font-size:80px;}
	.st3{letter-spacing:4;}
	.st4{fill:url(#SVGID_1_);}
	.st5{fill:url(#SVGID_2_);}
	.st6{fill:url(#SVGID_3_);}
	.st7{fill:url(#SVGID_4_);}
	.st8{fill:url(#SVGID_5_);}
	.st9{fill:url(#SVGID_6_);}
	.st10{fill:url(#SVGID_7_);}
	.st11{fill:url(#Swooshcolor_1_);}
</style>
<g id="SVGreat_black">
	<g id="Logoblack">
		<rect x="53" y="115.9" class="st0" width="590.6" height="207.3"/>
		<text transform="matrix(1 0 0 1 153.5723 172.3604)" class="st1 st2 st3">SVGREAT</text>
		<rect x="53" y="115.9" class="st0" width="590.6" height="207.3"/>
		<text transform="matrix(1 0 0 1 153.5723 172.3604)" class="st1 st2 st3">SVGREAT</text>
	</g>
</g>
<g id="SVGreat_colour">
	<g id="Logocolor">
		<rect x="56" y="118.9" class="st0" width="590.6" height="207.3"/>
		<text transform="matrix(1 0 0 1 156.5723 175.3604)" class="st1 st2 st3">SVGREAT</text>
		<g>
			<linearGradient id="SVGID_1_" gradientUnits="userSpaceOnUse" x1="133.1348" y1="151.4932" x2="551.9902" y2="151.4932">
				<stop  offset="0" style="stop-color:#3F2D87"/>
				<stop  offset="0.1163" style="stop-color:#5D2D87"/>
				<stop  offset="0.1708" style="stop-color:#4B2D87"/>
				<stop  offset="0.4282" style="stop-color:#9B2B87"/>
				<stop  offset="0.4809" style="stop-color:#AA2B87"/>
				<stop  offset="1" style="stop-color:#D51317"/>
			</linearGradient>
			<path class="st4" d="M205.4,115.3h0.7c1.1,0,2.6,0.8,4.4,2.5l0.4,0.4h0.4l-0.4,1.4l0.4,4.4c-0.4,3.9-1.7,5.8-4,5.8H205
				c-9.5,0-21.3,3.3-35.6,9.8v0.7h0.4c17.6,1.5,27.3,3.9,29.1,7.3c1.7,1,2.5,2.7,2.5,5.1c-0.7,8-1.6,12-2.9,12
				c-5.5,4.1-11.5,7.4-18.2,9.8c-10,3.4-23.7,7.3-41.1,11.6l-0.4-0.4v-0.4l2.5-1.1v-0.7l-4,0.7v-0.4c0-0.5,0.6-0.9,1.8-1.1v-0.7
				h-1.1v-0.7h0.7V181l-2.2-0.7l0.4-0.4v-1.1c-1,0-1.4-0.4-1.4-1.1l-0.4,0.4h-0.7v-0.4l0.4-0.4V177h-0.7c0-0.5-0.4-0.7-1.1-0.7v-0.4
				c0-1.2,9.8-4.6,29.4-10.2c13-4.5,20.5-7.5,22.5-9.1c-20.6-1.4-30.9-3.5-30.9-6.6c-2.4-1.6-3.6-3.9-3.6-6.9c0-2.8,1.5-6.1,4.4-9.8
				C172.6,121.3,189.5,115.3,205.4,115.3z M140.4,179.9v0.4h0.7v-0.4H140.4z"/>
			<linearGradient id="SVGID_2_" gradientUnits="userSpaceOnUse" x1="133.1348" y1="151.4932" x2="551.9902" y2="151.4932">
				<stop  offset="0" style="stop-color:#3F2D87"/>
				<stop  offset="0.1163" style="stop-color:#5D2D87"/>
				<stop  offset="0.1708" style="stop-color:#4B2D87"/>
				<stop  offset="0.4282" style="stop-color:#9B2B87"/>
				<stop  offset="0.4809" style="stop-color:#AA2B87"/>
				<stop  offset="1" style="stop-color:#D51317"/>
			</linearGradient>
			<path class="st5" d="M268.3,116.5l0.7,1.9h0.4l0.4-0.4h0.4l0.4,0.4l-0.4,0.4v0.4l0.7,0.7c0,0.9-5,7.3-14.9,19
				c-13.8,17.8-22.8,30.5-27.2,38.4c-1.1,4-2.8,5.9-5.2,5.9h-1.5c-4.2,0-7.8-1.6-10.8-4.8l0.7-3.4l-7.8-41l-3-13.8v-0.4
				c1.3-2,2.7-3,4.5-3c3.3,0,6.5,1.2,9.7,3.7c2.5,1.8,3.8,5,3.8,9.7c0.3,0.1,1.8,9,4.5,26.8h0.4l8.9-11.5c2.4-2.1,3.8-3.8,4.1-5.2
				h0.4l0.4,0.4h0.4l3.4-3.4l0.4,0.4v-0.4l-0.4-1.1l1.1-0.7h0.4l0.4,1.9l0.7-0.7l-0.4-1.5h0.4l-0.4-1.1c0.7-1.6,1.4-2.6,2.2-3h0.4
				l0.4,0.4h0.4l0.7-0.7v0.7l-0.4,0.4v0.4h0.4l4.1-5.2h0.4v0.4l-2.6,3.4v2.2l4.1-4.5l0.4,0.4h0.4v-0.7h0.4l-0.7-1.9l0.4-0.4h0.4
				l0.4,0.4h0.4l3.7-3l0.4,0.4v0.4l-1.9,1.8v0.4h0.7C264.1,119.8,267.3,116.6,268.3,116.5z"/>
			<linearGradient id="SVGID_3_" gradientUnits="userSpaceOnUse" x1="133.1348" y1="151.4932" x2="551.9902" y2="151.4932">
				<stop  offset="0" style="stop-color:#3F2D87"/>
				<stop  offset="0.1163" style="stop-color:#5D2D87"/>
				<stop  offset="0.1708" style="stop-color:#4B2D87"/>
				<stop  offset="0.4282" style="stop-color:#9B2B87"/>
				<stop  offset="0.4809" style="stop-color:#AA2B87"/>
				<stop  offset="1" style="stop-color:#D51317"/>
			</linearGradient>
			<path class="st6" d="M313,119h1.1c6.6,0,11.1,2.8,13.7,8.5c-0.6,5.2-1.5,7.8-2.6,7.8h-0.4c-1.5,0-4.1-0.7-7.8-2.2l-7.4-0.7
				c-13.5,0-24.8,5.5-34,16.6c-4,5.4-5.9,11.2-5.9,17.4c0,3.5,2.6,5.2,7.8,5.2c3.1,0,7.6-1,13.3-3v-0.4h-0.4l-10.7,0.7
				c0-0.7-1-1.5-3-2.6l0.4-0.4v-0.4h-2.2v-0.7l2.2-0.4v-0.4l-2.9-0.4V163h1.1v-0.4h-1.8v-0.4l0.7-1.1c-1.7,0-2.6-0.2-2.6-0.7
				c0-1.6,15.2-5.1,45.5-10.4c2.8,0,4.9,1.7,6.3,5.2l0.4,1.1c0,2.6-1.7,5.3-5.2,8.1c0,2.4-6.2,7.4-18.5,14.8
				c-5.8,3.2-11.5,4.8-17,4.8h-3.3c-11.1,0-18.5-5.7-22.2-17l-0.4-3.3v-2.2c0-8.9,6.9-19.6,20.7-32.2C288,122.4,299.7,119,313,119z"
				/>
			<linearGradient id="SVGID_4_" gradientUnits="userSpaceOnUse" x1="133.1348" y1="151.4932" x2="551.9902" y2="151.4932">
				<stop  offset="0" style="stop-color:#3F2D87"/>
				<stop  offset="0.1163" style="stop-color:#5D2D87"/>
				<stop  offset="0.1708" style="stop-color:#4B2D87"/>
				<stop  offset="0.4282" style="stop-color:#9B2B87"/>
				<stop  offset="0.4809" style="stop-color:#AA2B87"/>
				<stop  offset="1" style="stop-color:#D51317"/>
			</linearGradient>
			<path class="st7" d="M357.7,115.9h3c15.2,0,24.1,5,26.9,15l0.4,2.1v1c0,3-6.8,8-20.4,15c3.4,14.5,5.1,24.5,5.1,30.3l0.4,0.4v0.3
				l-0.4,1.1l0.4,3l-0.4,0.4H372c0-0.9-0.2-1.4-0.7-1.4c0,0.7-0.2,1-0.7,1h-0.7l-0.3-0.4h-0.4c-0.3,0.9-0.7,1.4-1,1.4l-1.7-0.4
				l-0.7,0.7c-0.2-1.1-0.7-1.7-1.7-1.7c-3.6-8.4-6.8-18.2-9.5-29.3l-15.3,5.1c-1.4,3.2-2.5,5-3.4,5.4l-0.4,1.7h-1l1.4-3.8v-0.4h-0.4
				l-1.7,3.8l0.7,0.7c-0.9,0-2.6,2.4-5.1,7.1c-0.3,0-1,1.5-2,4.5c-0.5,0-1.6,2.3-3.4,6.8h-0.4c0-1-1.1-2-3.4-2.7l-0.7,0.7
				c0-0.5-0.4-0.7-1.1-0.7l-1,0.4c-0.5-1.2-1.2-1.9-2-2v-1.1c0-5.5,6.2-20.7,18.7-45.6c-4.8-3.2-7.1-5.8-7.1-7.8v-1.7
				c0.2-1.2,4.4-3.2,12.6-6.1C340.8,116.8,346.8,115.9,357.7,115.9z M346.8,142.7h0.7c13.6-5.8,21.9-10.5,24.8-13.9v-0.4l-6.8-0.3
				h-0.7c-8.6,0-12.9,1-12.9,3C349.2,138,347.5,141.9,346.8,142.7z"/>
			<linearGradient id="SVGID_5_" gradientUnits="userSpaceOnUse" x1="133.1348" y1="151.4932" x2="551.9902" y2="151.4932">
				<stop  offset="0" style="stop-color:#3F2D87"/>
				<stop  offset="0.1163" style="stop-color:#5D2D87"/>
				<stop  offset="0.1708" style="stop-color:#4B2D87"/>
				<stop  offset="0.4282" style="stop-color:#9B2B87"/>
				<stop  offset="0.4809" style="stop-color:#AA2B87"/>
				<stop  offset="1" style="stop-color:#D51317"/>
			</linearGradient>
			<path class="st8" d="M426.3,118.3c0,0.9,0.4,1.3,1.3,1.3v0.7h-1v0.4c1.1,0,1.7,0.2,1.7,0.7v0.4H427c0,0.7,0.7,1,2,1v0.7h-1v0.3h4
				l3,1.7l-0.4,0.4v0.3c1.1,0,1.7,0.2,1.7,0.7c0,0.8-4.1,1.7-12.4,2.7c-2.8,0-8.2,1.6-16.1,4.7l-3.7,7.4h0.4c1.2-0.4,4.7-0.8,10.4-1
				l0.7,1l-1,0.4v0.3c1.8,0,2.7,0.2,2.7,0.7l-1.7,0.7v0.3h0.7l-0.3,1c0,1.1,0.9,2,2.7,2.7v0.3l-0.3,0.4v0.3c1.1,0,1.7,0.2,1.7,0.7
				v0.3c0,0.7-7,2.5-21.1,5.4c-1.7,0-4,3.4-6.7,10.1l24.1-4v0.7h0.4l1.7-0.4c0.3,1.1,0.8,1.7,1.7,1.7v1c-0.5,0-1.1,0.3-1.7,1h-0.7
				v0.3h2v0.7h-1.7l0.4,0.3v0.4l-0.4,0.3c3.3,0,5.1,0.6,5.4,1.7l-0.3,0.4c1.1,0.2,1.7,0.5,1.7,1c-2,1.3-8.7,2.9-20.1,5
				c-13.4,2.3-20.1,4.3-20.1,6.1c-0.3,1.2-1.3,2.2-3,3h-0.4l-2-1.7h-0.7l-1.7,0.4c0-0.6-1.1-1.1-3.3-1.7l-1,0.3l-0.4-0.3v-0.4l0.4-1
				h-0.7l-0.4,0.4H371l-0.4-0.4v-0.3c1.8-6.6,10.1-25.4,24.8-56.3c0-2.2,1.6-3.6,4.7-4l13.1,0.4L426.3,118.3z"/>
			<linearGradient id="SVGID_6_" gradientUnits="userSpaceOnUse" x1="133.1348" y1="151.4932" x2="551.9902" y2="151.4932">
				<stop  offset="0" style="stop-color:#3F2D87"/>
				<stop  offset="0.1163" style="stop-color:#5D2D87"/>
				<stop  offset="0.1708" style="stop-color:#4B2D87"/>
				<stop  offset="0.4282" style="stop-color:#9B2B87"/>
				<stop  offset="0.4809" style="stop-color:#AA2B87"/>
				<stop  offset="1" style="stop-color:#D51317"/>
			</linearGradient>
			<path class="st9" d="M464.2,118.6c6.3,0,10.1,1.9,11.5,5.6c0.8,3.3,1.8,9.9,2.9,19.7l0.4,0.4c0.1,1.5,0.5,2.3,1,2.3l10.5-1.3v0.7
				h0.4l5.2-0.3v0.6l-2.3,0.7v0.4h2.3l2.3-0.4v0.7c-2.2,0.9-4,1.3-5.2,1.3v0.7l1.6-0.4c1.5,0.4,2.3,0.9,2.3,1.3l1.7-0.4
				c4.4,0.1,6.6,0.6,6.6,1.3l-0.4,0.3l2.3,0.7v0.7c-3,1.5-9.1,2.9-18.4,3.9l-5.9,1c2.8,11.1,4.3,18.7,4.3,22.7v1.3l-1,1h-0.4
				c-0.7,0-1.5-0.3-2.3-1v1h-0.7v-0.7l-1,0.7l-1.3-1l-3.3,1.3l-2.7-2.6c-1.1-1.8-2.7-8.2-4.9-19.4h-0.3c-13.8,3.8-20.7,6.8-20.7,8.9
				c-0.9,0.5-3.5,3.9-7.9,10.2c-1.5,1.8-2.7,2.7-3.6,2.7l-0.7-1.6l-0.3,0.3H436c-1.3-0.8-2-1.7-2-2.6l-0.3,0.3H433v-0.7
				c-0.9,0-1.8-0.7-2.6-2c-0.9,0-1.3-0.2-1.3-0.7v-2.3c0-2.4,2.6-6.5,7.9-12.1c2.2-3.7,5.9-8.9,10.9-15.5l11.2-19.7l2.3-6.6
				C462.4,119,463.4,118.6,464.2,118.6z M461.6,150.4v0.3c3.7-1,5.6-1.6,5.6-2l-1-5.3C465.6,143.8,464.1,146.1,461.6,150.4z
				 M492.1,144.9h0.7v0.7h-0.7V144.9z M492.5,147.2v0.3h0.7v-0.3H492.5z"/>
			<linearGradient id="SVGID_7_" gradientUnits="userSpaceOnUse" x1="133.1348" y1="151.4932" x2="551.9902" y2="151.4932">
				<stop  offset="0" style="stop-color:#3F2D87"/>
				<stop  offset="0.1163" style="stop-color:#5D2D87"/>
				<stop  offset="0.1708" style="stop-color:#4B2D87"/>
				<stop  offset="0.4282" style="stop-color:#9B2B87"/>
				<stop  offset="0.4809" style="stop-color:#AA2B87"/>
				<stop  offset="1" style="stop-color:#D51317"/>
			</linearGradient>
			<path class="st10" d="M531.7,115l7,0.4h7c1.4,0,2.3,0.6,3,1.9l-0.4,0.4c1.2,0.1,1.8,0.4,1.8,1.1v0.4h-4v0.4h1.4v0.7h-0.7l0.4,0.4
				l-0.4,0.4v0.7l1.8,0.4v0.4l-0.4,0.4v0.4c1.5,0,2.2,1,2.2,2.9c1,0.1,1.5,0.5,1.5,1.1v0.7l-21.8,2.6c-1.8,0-3.3,2.3-4.4,7
				c-13,25.3-20.7,41.4-23.2,48.3c-1.5,1.5-2.7,2.2-3.7,2.2l-1.5-1.5c-1.5,0-2.2-0.6-2.2-1.8l-0.4,0.4h-0.4
				c-0.1-0.6-1.3-1.7-3.7-3.3l-1.1-1.9c0-4.9,5.9-18.1,17.7-39.4l3-7l-13.7,2.2c-5.2,0-8.6-2.3-10.3-7l-1.1-4.4v-0.7
				c0-1.6,1-3,2.9-4.4h4.8C500.7,119.1,513.6,117.7,531.7,115z"/>
		</g>
	</g>
</g>
<g id="Swoosh_black">
	<path id="Swooshblack" d="M243.5,213.7c50.6-0.6,112.3,2.4,163.4,2c7.6-0.1,15.3-0.2,22.9-0.4c7.6-0.2,15.1-0.6,22.6-1.1
		c7.4-0.6,14.7-1.4,21.8-2.6c7.1-1.2,13.9-2.8,20.3-4.9l2.4-0.8c0.8-0.3,1.5-0.6,2.3-0.9l2.3-0.9l1.2-0.4l1.1-0.5l4.4-2l4.2-2.2
		c5.4-3.1,10.3-6.7,14.8-10.8c8.9-8.2,16-18.1,22-28.4c1.1,0.4,0.6,4.4,3.2,1.1c4.9-6.7,7.6-10.1,9.6-11.6c2-1.5,3-1.2,4.1-0.8
		c1.1,0.4-5.8,10.9-2.8,7.6c-2.9,5.5-7.1,12.6-9.8,17.1c-2.8,4.4-3.6,6.3,0.6,1.3c1.7-1.5,4.6-5.9,7.3-10.4c2.7-4.5,5.3-9,7.1-10.6
		c3.6-3.2,1.3,4.7,4.9,1.6c2-3.7,5.8-11.1,7.6-14.8c3-3.4,1.4,4.7,3.3,1c6.7-10.8,13.7-25.7,21.1-40.5c1.1,0.3,4-3,0.8,4.5
		c-8.1,16.2-16.2,32.5-24.3,48.9c-4.2,8.3-8.8,16.7-14.2,24.9c-5.6,8.2-12,16.5-20.3,23.9c-8.1,7.5-18.4,14.1-29.6,19l-2.1,0.9
		l-2.2,0.8l-4.3,1.6c-1.4,0.6-2.9,1-4.4,1.5c-1.5,0.5-2.9,1-4.4,1.4c-6,1.6-12,3.1-18,4.1c-12.1,2.1-24.1,3.2-36,3.7
		c-11.9,0.5-23.5,0.5-35,0.4c-90.7-1.2-181.3-2.7-270.7-5c-20.4-0.8-5-2.4,10.3-3.4c-5.1,0.4-5.1-1-10.2-0.6
		c0-1.4,10.3-3.5,30.8-3.5c-5.1-0.1-10.2-0.2-15.3-0.3c-5.1-0.5,0-1.4,0.1-2.3c5.1,0.1,10.2,0.2,10.2-0.3c0-0.5,0-1.4,0.1-1.8
		c-5.1-0.1-15.3-0.3-20.4-0.4c5.1,0.1,10.2,0.2,10.2-0.3c0-0.5,0-1.4,0.1-1.8c10.2-0.3,25.5,0.9,35.8,0.6l0-1.4
		c-10.2-0.6-25.5-0.5-35.8-0.6c5.1-0.4,5.1-0.8,5.2-1.7c15.3-0.2,30.6,1.5,46,0.4c-5.1-0.1-10.2-0.2-15.3-0.3
		C202.7,211.6,228.2,213.9,243.5,213.7z"/>
</g>
<g id="Swoosh_colour">
	<linearGradient id="Swooshcolor_1_" gradientUnits="userSpaceOnUse" x1="131" y1="164.3552" x2="607.7564" y2="164.3552">
		<stop  offset="0" style="stop-color:#009C8B"/>
		<stop  offset="0" style="stop-color:#3F2D87"/>
		<stop  offset="0.5056" style="stop-color:#AA2B87"/>
		<stop  offset="1" style="stop-color:#D51317"/>
	</linearGradient>
	<path id="Swooshcolor" class="st11" d="M243.5,209.7c50.6-0.6,112.3,2.4,163.4,2c7.6-0.1,15.3-0.2,22.9-0.4
		c7.6-0.2,15.1-0.6,22.6-1.1c7.4-0.6,14.7-1.4,21.8-2.6c7.1-1.2,13.9-2.8,20.3-4.9l2.4-0.8c0.8-0.3,1.5-0.6,2.3-0.9l2.3-0.9l1.2-0.4
		l1.1-0.5l4.4-2l4.2-2.2c5.4-3.1,10.3-6.7,14.8-10.8c8.9-8.2,16-18.1,22-28.4c1.1,0.4,0.6,4.4,3.2,1.1c4.9-6.7,7.6-10.1,9.6-11.6
		c2-1.5,3-1.2,4.1-0.8c1.1,0.4-5.8,10.9-2.8,7.6c-2.9,5.5-7.1,12.6-9.8,17.1c-2.8,4.4-3.6,6.3,0.6,1.3c1.7-1.5,4.6-5.9,7.3-10.4
		c2.7-4.5,5.3-9,7.1-10.6c3.6-3.2,1.3,4.7,4.9,1.6c2-3.7,5.8-11.1,7.6-14.8c3-3.4,1.4,4.7,3.3,1c6.7-10.8,13.7-25.7,21.1-40.5
		c1.1,0.3,4-3,0.8,4.5c-8.1,16.2-16.2,32.5-24.3,48.9c-4.2,8.3-8.8,16.7-14.2,24.9c-5.6,8.2-12,16.5-20.3,23.9
		c-8.1,7.5-18.4,14.1-29.6,19l-2.1,0.9l-2.2,0.8l-4.3,1.6c-1.4,0.6-2.9,1-4.4,1.5c-1.5,0.5-2.9,1-4.4,1.4c-6,1.6-12,3.1-18,4.1
		c-12.1,2.1-24.1,3.2-36,3.7c-11.9,0.5-23.5,0.5-35,0.4c-90.7-1.2-181.3-2.7-270.7-5c-20.4-0.8-5-2.4,10.3-3.4
		c-5.1,0.4-5.1-1-10.2-0.6c0-1.4,10.3-3.5,30.8-3.5c-5.1-0.1-10.2-0.2-15.3-0.3c-5.1-0.5,0-1.4,0.1-2.3c5.1,0.1,10.2,0.2,10.2-0.3
		c0-0.5,0-1.4,0.1-1.8c-5.1-0.1-15.3-0.3-20.4-0.4c5.1,0.1,10.2,0.2,10.2-0.3c0-0.5,0-1.4,0.1-1.8c10.2-0.3,25.5,0.9,35.8,0.6l0-1.4
		c-10.2-0.6-25.5-0.5-35.8-0.6c5.1-0.4,5.1-0.8,5.2-1.7c15.3-0.2,30.6,1.5,46,0.4c-5.1-0.1-10.2-0.2-15.3-0.3
		C202.7,207.6,228.2,209.9,243.5,209.7z"/>
</g>
</svg>
